<svg width="20" height="14" viewBox="0 0 20 14" fill="none" xmlns="http://www.w3.org/2000/svg">
<path d="M3.01219 7V10.7C3.01219 11 2.81219 11 2.51219 10.9C0.612188 10.1 -0.487812 7.6 0.212188 5.5C0.612188 4.4 1.41219 3.5 2.51219 3.1C2.91219 2.9 3.01219 3 3.01219 3.3V7ZM5.01219 7V3.3C5.01219 3 5.01219 3 5.31219 3.1C7.41219 3.9 8.51219 6.4 7.71219 8.5C7.31219 9.6 6.51219 10.5 5.41219 10.9C5.01219 11.1 5.01219 11 5.01219 10.7V7ZM12.2122 0H4.01219C7.81219 0 10.8122 3.1 10.8122 7C10.8122 10.9 7.81219 14 4.01219 14H12.2122C16.0122 14 19.0122 10.9 19.0122 7C19.0122 3.1 16.0122 0 12.2122 0Z" fill="#3086C8"/>
</svg>
